<?xml version="1.0" encoding="UTF-8"?>
<svg xmlns="http://www.w3.org/2000/svg" xmlns:xlink="http://www.w3.org/1999/xlink" width="393.74pt" height="354.41pt" viewBox="0 0 393.74 354.41" version="1.1">
<defs>
<clipPath id="clip1">
  <path d="M 0 0 L 19 0 L 19 354.410156 L 0 354.410156 Z M 0 0 "/>
</clipPath>
<clipPath id="clip2">
  <path d="M 93 0 L 113 0 L 113 354.410156 L 93 354.410156 Z M 93 0 "/>
</clipPath>
<clipPath id="clip3">
  <path d="M 187 0 L 207 0 L 207 354.410156 L 187 354.410156 Z M 187 0 "/>
</clipPath>
<clipPath id="clip4">
  <path d="M 281 0 L 300 0 L 300 354.410156 L 281 354.410156 Z M 281 0 "/>
</clipPath>
<clipPath id="clip5">
  <path d="M 375 0 L 393.738281 0 L 393.738281 354.410156 L 375 354.410156 Z M 375 0 "/>
</clipPath>
<clipPath id="clip6">
  <path d="M 0 115 L 393.738281 115 L 393.738281 245 L 0 245 Z M 0 115 "/>
</clipPath>
</defs>
<g id="surface1">
<path style=" stroke:none;fill-rule:nonzero;fill:rgb(100%,94.898987%,0%);fill-opacity:1;" d="M 14.652344 118.714844 L 101.367188 118.714844 L 101.367188 37.128906 L 14.652344 37.128906 Z M 14.652344 118.714844 "/>
<path style=" stroke:none;fill-rule:nonzero;fill:rgb(97.599792%,60.798645%,10.998535%);fill-opacity:1;" d="M 106.722656 118.714844 L 193.4375 118.714844 L 193.4375 37.128906 L 106.722656 37.128906 Z M 106.722656 118.714844 "/>
<path style=" stroke:none;fill-rule:nonzero;fill:rgb(92.89856%,10.998535%,14.099121%);fill-opacity:1;" d="M 202.226563 118.714844 L 288.941406 118.714844 L 288.941406 37.128906 L 202.226563 37.128906 Z M 202.226563 118.714844 "/>
<path style=" stroke:none;fill-rule:nonzero;fill:rgb(57.299805%,15.299988%,56.098938%);fill-opacity:1;" d="M 294.070313 118.714844 L 380.785156 118.714844 L 380.785156 37.128906 L 294.070313 37.128906 Z M 294.070313 118.714844 "/>
<path style=" stroke:none;fill-rule:nonzero;fill:rgb(0%,68.199158%,93.699646%);fill-opacity:1;" d="M 106.722656 321.445313 L 193.4375 321.445313 L 193.4375 239.859375 L 106.722656 239.859375 Z M 106.722656 321.445313 "/>
<path style=" stroke:none;fill-rule:nonzero;fill:rgb(0%,65.098572%,31.399536%);fill-opacity:1;" d="M 202.226563 321.445313 L 288.941406 321.445313 L 288.941406 239.859375 L 202.226563 239.859375 Z M 202.226563 321.445313 "/>
<path style=" stroke:none;fill-rule:nonzero;fill:rgb(100%,94.898987%,0%);fill-opacity:1;" d="M 294.070313 321.445313 L 380.785156 321.445313 L 380.785156 239.859375 L 294.070313 239.859375 Z M 294.070313 321.445313 "/>
<path style=" stroke:none;fill-rule:nonzero;fill:rgb(0%,38.798523%,68.998718%);fill-opacity:1;" d="M 14.652344 321.445313 L 101.367188 321.445313 L 101.367188 239.859375 L 14.652344 239.859375 Z M 14.652344 321.445313 "/>
<g clip-path="url(#clip1)" clip-rule="nonzero">
<path style=" stroke:none;fill-rule:nonzero;fill:rgb(13.699341%,12.199402%,12.5%);fill-opacity:1;" d="M 0 354.410156 L 18.3125 354.410156 L 18.3125 -0.00390625 L 0 -0.00390625 Z M 0 354.410156 "/>
</g>
<g clip-path="url(#clip2)" clip-rule="nonzero">
<path style=" stroke:none;fill-rule:nonzero;fill:rgb(13.699341%,12.199402%,12.5%);fill-opacity:1;" d="M 93.855469 354.410156 L 112.171875 354.410156 L 112.171875 -0.00390625 L 93.855469 -0.00390625 Z M 93.855469 354.410156 "/>
</g>
<g clip-path="url(#clip3)" clip-rule="nonzero">
<path style=" stroke:none;fill-rule:nonzero;fill:rgb(13.699341%,12.199402%,12.5%);fill-opacity:1;" d="M 187.714844 354.410156 L 206.027344 354.410156 L 206.027344 -0.00390625 L 187.714844 -0.00390625 Z M 187.714844 354.410156 "/>
</g>
<g clip-path="url(#clip4)" clip-rule="nonzero">
<path style=" stroke:none;fill-rule:nonzero;fill:rgb(13.699341%,12.199402%,12.5%);fill-opacity:1;" d="M 281.570313 354.410156 L 299.882813 354.410156 L 299.882813 -0.00390625 L 281.570313 -0.00390625 Z M 281.570313 354.410156 "/>
</g>
<g clip-path="url(#clip5)" clip-rule="nonzero">
<path style=" stroke:none;fill-rule:nonzero;fill:rgb(13.699341%,12.199402%,12.5%);fill-opacity:1;" d="M 375.429688 354.410156 L 393.742188 354.410156 L 393.742188 -0.00390625 L 375.429688 -0.00390625 Z M 375.429688 354.410156 "/>
</g>
<g clip-path="url(#clip6)" clip-rule="nonzero">
<path style=" stroke:none;fill-rule:nonzero;fill:rgb(13.699341%,12.199402%,12.5%);fill-opacity:1;" d="M 0 244.253906 L 393.742188 244.253906 L 393.742188 115.28125 L 0 115.28125 Z M 0 244.253906 "/>
</g>
<path style=" stroke:none;fill-rule:evenodd;fill:rgb(100%,100%,100%);fill-opacity:1;" d="M 94.960938 196.488281 C 94.960938 189.3125 89.703125 185.089844 79.511719 183.488281 L 79.511719 183.316406 C 88.058594 181.121094 92.988281 176.988281 92.988281 169.558594 C 92.988281 159.425781 82.359375 154.613281 68.117188 154.613281 L 32.945313 154.613281 L 32.945313 213.539063 L 65.15625 213.539063 C 78.855469 213.539063 94.960938 210.585938 94.960938 196.488281 M 72.609375 171.667969 C 72.609375 176.648438 65.707031 177.914063 59.023438 177.914063 L 53.324219 177.914063 L 53.324219 165.757813 L 59.242188 165.757813 C 66.035156 165.757813 72.609375 166.265625 72.609375 171.667969 M 74.582031 195.558594 C 74.582031 201.550781 66.800781 202.398438 59.351563 202.398438 L 53.324219 202.398438 L 53.324219 188.550781 L 59.570313 188.550781 C 66.582031 188.550781 74.582031 189.144531 74.582031 195.558594 "/>
<path style=" stroke:none;fill-rule:evenodd;fill:rgb(100%,100%,100%);fill-opacity:1;" d="M 161.132813 213.539063 L 161.132813 202.398438 L 126.402344 202.398438 L 126.402344 189.058594 L 158.066406 189.058594 L 158.066406 177.914063 L 126.402344 177.914063 L 126.402344 165.757813 L 159.925781 165.757813 L 159.925781 154.617188 L 106.019531 154.617188 L 106.019531 213.539063 "/>
<path style=" stroke:none;fill-rule:evenodd;fill:rgb(100%,100%,100%);fill-opacity:1;" d="M 225.847656 166.265625 L 225.847656 154.613281 L 167.777344 154.613281 L 167.777344 166.265625 L 186.621094 166.265625 L 186.621094 213.539063 L 207 213.539063 L 207 166.265625 "/>
<path style=" stroke:none;fill-rule:evenodd;fill:rgb(100%,100%,100%);fill-opacity:1;" d="M 288.914063 213.539063 L 288.914063 202.398438 L 254.183594 202.398438 L 254.183594 189.058594 L 285.847656 189.058594 L 285.847656 177.914063 L 254.183594 177.914063 L 254.183594 165.757813 L 287.710938 165.757813 L 287.710938 154.617188 L 233.800781 154.617188 L 233.800781 213.539063 "/>
<path style=" stroke:none;fill-rule:evenodd;fill:rgb(100%,100%,100%);fill-opacity:1;" d="M 371.597656 213.539063 L 341.136719 182.050781 L 369.40625 154.617188 L 344.863281 154.617188 L 321.851563 178.675781 L 321.632813 178.675781 L 321.632813 154.617188 L 301.253906 154.617188 L 301.253906 213.539063 L 321.632813 213.539063 L 321.632813 186.777344 L 321.851563 186.777344 L 345.628906 213.539063 "/>
</g>
</svg>
