<?xml version="1.0" encoding="UTF-8"?>
<svg xmlns="http://www.w3.org/2000/svg" xmlns:xlink="http://www.w3.org/1999/xlink" width="193pt" height="193pt" viewBox="0 0 193 193" version="1.1">
<g id="surface1">
<path style=" stroke:none;fill-rule:evenodd;fill:rgb(100%,100%,100%);fill-opacity:1;" d="M 0 0.242188 L 192.757813 0.242188 L 192.757813 193 L 0 193 L 0 0.242188 "/>
<path style=" stroke:none;fill-rule:nonzero;fill:rgb(0%,68.199158%,93.699646%);fill-opacity:1;" d="M 54.199219 118.117188 L 96.398438 118.117188 L 96.398438 156.878906 L 54.199219 156.878906 L 54.199219 118.117188 "/>
<path style=" stroke:none;fill-rule:nonzero;fill:rgb(69.799805%,82.398987%,20.399475%);fill-opacity:1;" d="M 96.398438 118.117188 L 138.597656 118.117188 L 138.597656 156.878906 L 96.398438 156.878906 L 96.398438 118.117188 "/>
<path style=" stroke:none;fill-rule:nonzero;fill:rgb(100%,86.698914%,0%);fill-opacity:1;" d="M 138.597656 118.117188 L 180.792969 118.117188 L 180.792969 156.878906 L 138.597656 156.878906 L 138.597656 118.117188 "/>
<path style=" stroke:none;fill-rule:nonzero;fill:rgb(0%,39.99939%,70.199585%);fill-opacity:1;" d="M 12 118.117188 L 54.199219 118.117188 L 54.199219 156.878906 L 12 156.878906 L 12 118.117188 "/>
<path style=" stroke:none;fill-rule:nonzero;fill:rgb(96.099854%,50.999451%,12.199402%);fill-opacity:1;" d="M 54.199219 35.777344 L 96.398438 35.777344 L 96.398438 74.539063 L 54.199219 74.539063 L 54.199219 35.777344 "/>
<path style=" stroke:none;fill-rule:nonzero;fill:rgb(92.89856%,10.998535%,14.099121%);fill-opacity:1;" d="M 96.398438 35.777344 L 138.597656 35.777344 L 138.597656 74.539063 L 96.398438 74.539063 L 96.398438 35.777344 "/>
<path style=" stroke:none;fill-rule:nonzero;fill:rgb(77.598572%,8.599854%,55.299377%);fill-opacity:1;" d="M 138.597656 35.777344 L 180.792969 35.777344 L 180.792969 74.539063 L 138.597656 74.539063 L 138.597656 35.777344 "/>
<path style=" stroke:none;fill-rule:nonzero;fill:rgb(100%,94.898987%,0%);fill-opacity:1;" d="M 12 35.777344 L 54.199219 35.777344 L 54.199219 74.539063 L 12 74.539063 L 12 35.777344 "/>
<path style=" stroke:none;fill-rule:nonzero;fill:rgb(13.699341%,12.199402%,12.5%);fill-opacity:1;" d="M 12.007813 71.808594 L 180.75 71.808594 L 180.75 121.4375 L 12.007813 121.4375 L 12.007813 71.808594 "/>
<path style=" stroke:none;fill-rule:nonzero;fill:rgb(13.699341%,12.199402%,12.5%);fill-opacity:1;" d="M 15.507813 22.179688 L 15.507813 171.066406 L 8.503906 171.066406 L 8.503906 22.179688 L 15.507813 22.179688 "/>
<path style=" stroke:none;fill-rule:nonzero;fill:rgb(13.699341%,12.199402%,12.5%);fill-opacity:1;" d="M 184.253906 22.179688 L 184.253906 171.066406 L 177.246094 171.066406 L 177.246094 22.179688 L 184.253906 22.179688 "/>
<path style=" stroke:none;fill-rule:nonzero;fill:rgb(13.699341%,12.199402%,12.5%);fill-opacity:1;" d="M 57.695313 22.179688 L 57.695313 171.066406 L 50.691406 171.066406 L 50.691406 22.179688 L 57.695313 22.179688 "/>
<path style=" stroke:none;fill-rule:nonzero;fill:rgb(13.699341%,12.199402%,12.5%);fill-opacity:1;" d="M 99.878906 22.179688 L 99.878906 171.066406 L 92.875 171.066406 L 92.875 22.179688 L 99.878906 22.179688 "/>
<path style=" stroke:none;fill-rule:nonzero;fill:rgb(13.699341%,12.199402%,12.5%);fill-opacity:1;" d="M 142.066406 22.179688 L 142.066406 171.066406 L 135.0625 171.066406 L 135.0625 22.179688 L 142.066406 22.179688 "/>
<path style=" stroke:none;fill-rule:evenodd;fill:rgb(100%,100%,100%);fill-opacity:1;" d="M 94.164063 103.746094 C 94.066406 103.542969 94.296875 103.464844 94.363281 103.335938 C 94.515625 103.035156 94.410156 102.675781 94.5 102.363281 C 94.4375 102.253906 94.675781 101.597656 94.714844 101.429688 C 95.019531 100.957031 95 100.597656 95.078125 100.25 C 95.457031 99.96875 95.460938 98.769531 95.921875 98.179688 C 95.902344 97.394531 97.449219 94.378906 98.203125 94.003906 C 98.382813 93.695313 98.644531 93.363281 98.988281 93.226563 C 99.035156 92.832031 100.714844 92.394531 101.019531 92.273438 C 101.320313 92.378906 101.980469 92.339844 102.328125 92.417969 C 102.429688 92.734375 104.019531 92.847656 104.117188 93.117188 L 104.597656 93.320313 C 104.664063 93.578125 105.230469 93.65625 105.441406 93.71875 C 105.449219 93.953125 105.558594 94.210938 105.773438 94.320313 C 106.308594 95.179688 106.8125 95.929688 107.027344 96.902344 C 107.203125 97.6875 106.75 98.082031 106.820313 98.507813 C 106.882813 98.867188 106.550781 99.109375 106.554688 99.457031 L 106.242188 99.730469 C 106.179688 100.050781 105.917969 100.28125 105.789063 100.574219 C 105.523438 100.597656 105.363281 100.878906 105.089844 100.886719 C 105 101.035156 104.792969 101.113281 104.628906 101.15625 C 104.417969 101.425781 102.816406 102.316406 102.410156 102.523438 C 101.96875 102.40625 100 103.683594 99.449219 103.578125 C 99.007813 103.492188 98.5 103.773438 98.125 103.96875 C 97.582031 104.257813 94.3125 104.1875 94.175781 104.386719 C 93.910156 104.1875 94.007813 103.925781 94.164063 103.746094 Z M 99.058594 84.890625 C 99.242188 84.492188 99.222656 84.265625 99.121094 84.105469 C 99.175781 83.855469 99.183594 83.585938 99.179688 83.332031 L 99.425781 83.054688 C 99.496094 82.558594 99.609375 82.019531 99.714844 81.535156 C 99.558594 81.230469 100.5 79.1875 100.769531 78.800781 C 101.125 78.640625 101.140625 77.769531 101.621094 77.5 C 101.757813 77.203125 102.089844 77.144531 102.296875 76.917969 C 102.613281 76.863281 102.902344 76.695313 103.152344 76.496094 L 103.6875 76.53125 C 103.832031 76.21875 104.238281 76.441406 104.484375 76.355469 C 104.714844 76.53125 105.167969 76.644531 105.453125 76.609375 L 107.011719 77.21875 C 107.136719 77.492188 107.378906 77.683594 107.609375 77.859375 C 107.71875 78.1875 107.964844 79.304688 107.933594 79.621094 C 107.707031 79.835938 107.800781 80.695313 107.238281 80.804688 C 107.265625 81.347656 106.78125 82.460938 106.179688 82.71875 C 106.171875 82.992188 105.816406 83.058594 105.753906 83.308594 C 105.546875 83.457031 105.457031 83.71875 105.28125 83.898438 C 105.046875 83.957031 104.835938 84.117188 104.761719 84.351563 C 104.550781 84.460938 104.203125 84.484375 104.242188 84.804688 C 103.875 84.980469 103.59375 85.398438 103.160156 85.421875 C 103.039063 85.675781 101.503906 86.1875 101.222656 86.042969 C 100.402344 86.160156 100 86.410156 99.082031 86.203125 C 99.128906 85.996094 99.109375 85.75 99.054688 85.546875 Z M 115.1875 100.566406 C 115.496094 100.144531 115.523438 99.59375 115.644531 99.101563 C 115.6875 99.074219 117.296875 94.984375 117.308594 94.738281 C 117.339844 94.175781 117.226563 93.585938 117.199219 93.023438 C 116.90625 92.671875 117.128906 92.179688 117.09375 91.773438 C 117.234375 91.707031 117.25 91.523438 117.207031 91.390625 C 117.308594 91.066406 118.347656 89.886719 118.648438 89.558594 C 118.773438 89.425781 118.828125 89.117188 118.988281 89.066406 C 119.109375 88.871094 119.332031 88.792969 119.519531 88.683594 C 119.878906 87.925781 120.414063 87.722656 121.003906 87.136719 C 121.660156 87.09375 122.386719 87.355469 123.054688 87.191406 C 123.394531 87.324219 123.789063 87.183594 124.125 87.347656 C 124.3125 87.296875 126.179688 88.039063 126.464844 88.183594 C 126.941406 88.097656 127.839844 89.582031 128.152344 89.90625 C 128.128906 90.257813 128.234375 90.644531 128.335938 90.972656 C 128.605469 91.84375 128.941406 93.582031 128.726563 94.195313 C 128.9375 94.539063 128.6875 96.796875 128.371094 97.109375 C 128.371094 97.28125 128.339844 97.570313 128.152344 97.640625 C 127.992188 97.949219 128.027344 98.339844 127.796875 98.617188 C 127.785156 98.972656 127.34375 99.105469 127.332031 99.460938 C 127.183594 99.648438 127.046875 99.84375 126.925781 100.050781 C 126.660156 100.007813 126.179688 100.730469 126.15625 100.929688 C 125.96875 100.988281 125.878906 101.214844 125.722656 101.320313 C 124.816406 101.910156 124.019531 102.878906 123.136719 103.550781 C 122.953125 103.691406 122.59375 103.882813 122.464844 104.0625 C 122.335938 104.242188 122.113281 104.152344 122.070313 104.320313 C 119.132813 105.84375 118.601563 105.839844 115.460938 105.347656 C 115.210938 105.097656 115.230469 104.652344 114.902344 104.472656 C 114.957031 104.257813 114.460938 103.136719 114.554688 102.375 C 114.625 101.8125 115.199219 101.117188 115.1875 100.566406 Z M 116.925781 116.375 L 117.003906 116.027344 C 117.183594 115.980469 117.335938 115.800781 117.4375 115.65625 C 117.914063 115.589844 118.152344 115.074219 118.621094 114.988281 C 118.890625 114.675781 119.320313 114.710938 119.675781 114.574219 L 120.023438 114.71875 C 120.046875 116.078125 121.03125 115.589844 121.578125 116 C 122.101563 115.84375 122.953125 115.722656 123.484375 115.714844 C 123.820313 115.339844 124.414063 115.613281 124.746094 115.253906 C 125.382813 115.386719 127.851563 114.089844 128.398438 113.699219 C 128.460938 113.492188 130.167969 112.773438 130.453125 112.109375 L 130.757813 112.117188 C 130.910156 112.019531 131.078125 111.84375 131.273438 111.800781 C 131.351563 111.546875 135.574219 107.988281 136.214844 106.558594 C 136.234375 106.511719 137.25 104.839844 137.382813 104.804688 C 137.945313 103.101563 139.367188 101.464844 139.925781 99.378906 C 140.003906 99.09375 139.882813 98.769531 140.140625 98.546875 C 140.152344 98.21875 140.324219 97.921875 140.257813 97.589844 C 140.101563 97.496094 138.753906 98.308594 138.5625 98.472656 C 138.265625 98.445313 138.289063 98.847656 137.925781 98.90625 L 137.433594 98.988281 C 137.210938 99.21875 136.746094 99.285156 136.691406 99.601563 C 136.332031 99.996094 135.144531 100.324219 134.660156 100.4375 C 133.695313 100.5 132.726563 100.28125 131.773438 100.339844 C 130.558594 99.648438 131.222656 99.449219 130.625 99.035156 L 130.535156 98.765625 C 130.777344 98.101563 130.46875 95.890625 131.046875 95.605469 C 131.28125 94.953125 131.65625 94.15625 131.828125 93.5 C 131.855469 93.472656 132.328125 91.914063 132.320313 91.851563 C 132.53125 91.71875 132.28125 91.421875 132.507813 91.304688 C 132.46875 91.0625 132.6875 90.890625 132.734375 90.671875 C 132.90625 90.558594 132.800781 90.292969 133.003906 90.195313 C 133.046875 89.894531 132.984375 89.484375 133.316406 89.332031 C 133.523438 88.898438 133.429688 88.511719 133.527344 88.078125 C 133.582031 87.851563 133.835938 87.6875 133.738281 87.429688 C 133.960938 86.972656 134.226563 86.484375 134.492188 86.042969 C 135.171875 85.671875 135.816406 85.757813 136.523438 85.628906 C 136.835938 85.816406 137.210938 85.839844 137.503906 85.996094 C 137.792969 86.15625 137.800781 86.480469 138.203125 86.609375 C 138.734375 87.457031 138.5 87.394531 138.546875 88.320313 C 138.273438 88.761719 137.035156 91.824219 137.046875 92.351563 L 136.746094 92.660156 C 136.683594 93.070313 136.371094 93.390625 136.339844 93.808594 C 136.148438 94.015625 136.175781 94.386719 135.910156 94.53125 C 135.890625 94.707031 135.832031 94.976563 135.65625 95.0625 C 135.589844 95.246094 135.507813 95.476563 135.367188 95.621094 L 135.621094 96.066406 C 135.773438 95.929688 136.238281 95.671875 136.261719 95.484375 C 136.5 95.449219 137.65625 94.753906 137.980469 94.519531 C 138.589844 94.5625 140.796875 92.75 141.449219 92.339844 C 141.476563 92.089844 141.660156 91.871094 141.890625 91.78125 L 142.105469 91.421875 C 142.324219 91.375 142.4375 91.160156 142.589844 91.015625 C 142.519531 90.664063 142.960938 90.542969 143.003906 90.222656 L 143.402344 89.867188 C 143.394531 89.605469 143.402344 89.335938 143.480469 89.082031 C 143.996094 88.863281 143.699219 87.574219 144.148438 87.222656 C 144.554688 86.171875 145.246094 84.386719 146.011719 83.503906 C 146.339844 83.515625 146.335938 83.054688 146.761719 83.179688 C 146.890625 83.214844 147.199219 83.070313 147.273438 82.976563 C 148.84375 83.609375 149.066406 83.433594 149.570313 85.074219 C 150.300781 85.488281 149.039063 88.816406 148.617188 89.242188 C 148.523438 90.011719 148.128906 90.574219 148.007813 91.390625 C 147.601563 91.566406 147.78125 92.523438 147.355469 92.710938 C 147.140625 93.167969 147.351563 93.730469 147.035156 94.148438 C 146.375 95.015625 144.519531 100.84375 144.308594 100.960938 C 144.148438 101.273438 143.9375 101.570313 143.972656 101.941406 C 143.734375 102.03125 142.765625 104.332031 142.53125 104.679688 C 142.199219 105.152344 142.050781 105.597656 141.765625 105.964844 C 141.796875 106.175781 141 107.417969 140.863281 107.730469 C 140.691406 107.839844 140.273438 108.699219 140.234375 108.902344 C 139.753906 109.25 138.402344 111.398438 138.046875 111.363281 C 137.65625 111.789063 137.1875 112.125 136.792969 112.546875 C 136.753906 112.78125 136.429688 112.738281 136.394531 112.972656 C 136.226563 113.09375 136.058594 113.21875 135.925781 113.375 C 135.929688 113.699219 135.476563 113.570313 135.421875 113.859375 L 135.144531 114.003906 C 135.128906 114.285156 134.738281 114.277344 134.691406 114.542969 C 134.453125 114.589844 134.304688 114.847656 134.039063 114.820313 C 131.804688 117.097656 125.257813 118.667969 125.039063 118.894531 C 124.574219 118.617188 124.054688 118.894531 123.5625 118.878906 C 123.160156 119.128906 120.585938 119.0625 120.007813 119.023438 C 119.761719 119.222656 116.269531 119.246094 116.472656 117.300781 C 116.507813 116.96875 116.585938 116.542969 116.925781 116.375 Z M 120.039063 95.960938 C 120.039063 95.960938 121.007813 94.316406 121.734375 93.683594 C 121.765625 93.523438 121.839844 93.296875 122.003906 93.222656 C 122.035156 93.152344 123.527344 91.539063 123.558594 91.527344 L 123.976563 91.59375 L 124.148438 91.886719 C 124.121094 92.746094 125.070313 93.007813 124.574219 95.664063 C 124.105469 96.171875 123.523438 98.078125 122.96875 98.332031 C 122.769531 98.664063 122.21875 99.515625 121.828125 99.65625 C 121.53125 100.089844 120.59375 100.546875 120.53125 100.667969 C 119.886719 100.847656 119.675781 100.660156 119.253906 100.21875 C 119.238281 99.863281 119.152344 99.429688 119.109375 99.070313 C 119.273438 98.910156 119.882813 96.398438 120.039063 95.960938 Z M 149.671875 95.632813 C 150.011719 95.351563 149.964844 94.65625 150.414063 94.214844 C 150.40625 93.949219 150.566406 93.757813 150.800781 93.65625 C 151.125 93.140625 151.472656 92.652344 151.78125 92.128906 C 152.027344 92.023438 152.078125 91.738281 152.121094 91.5 C 152.742188 91.113281 152.953125 89.964844 153.714844 89.707031 C 153.753906 89.464844 154.464844 88.613281 154.765625 88.515625 C 154.863281 88.082031 155.320313 87.898438 155.683594 87.726563 C 155.84375 87.316406 156.394531 87.144531 156.589844 86.765625 C 157.039063 86.476563 157.738281 85.632813 158.105469 85.203125 C 158.226563 85.175781 160.046875 84.042969 160.066406 83.996094 L 160.457031 83.875 C 161.054688 83.390625 162.050781 83.617188 162.347656 83.183594 L 162.832031 83.234375 C 163.214844 83.003906 163.636719 83.152344 163.835938 82.984375 C 164.351563 83.003906 164.878906 83.074219 165.394531 83.003906 C 165.894531 83.507813 166.519531 82.960938 166.878906 83.425781 C 167.425781 83.410156 167.894531 84.007813 168.1875 84.378906 C 168.480469 84.421875 168.46875 84.765625 168.589844 84.964844 C 168.539063 86.425781 168.0625 87.023438 167.613281 88.359375 C 167.375 88.566406 167.339844 88.894531 167.230469 89.171875 C 166.796875 89.304688 167.054688 89.648438 166.789063 89.8125 C 166.601563 90.277344 166.707031 91.609375 166.484375 91.835938 C 166.460938 92.496094 166.34375 93.027344 166.535156 93.683594 C 166.785156 93.917969 166.59375 94.367188 166.925781 94.539063 C 167.015625 94.777344 166.984375 95.066406 167.203125 95.238281 C 167.117188 96.429688 168.730469 96.734375 169.480469 96.996094 L 169.960938 96.730469 C 170.175781 96.175781 171.4375 95.414063 171.964844 95.203125 C 172.226563 95.28125 172.503906 95.238281 172.765625 95.296875 C 172.90625 95.605469 173.300781 95.648438 173.503906 95.894531 C 173.714844 96.152344 174.011719 96.726563 174.242188 96.910156 C 174.308594 97.363281 174.226563 97.820313 174.175781 98.273438 C 173.910156 98.59375 173.625 99.003906 173.398438 99.355469 C 173.167969 99.34375 173.144531 99.664063 172.933594 99.707031 C 172.773438 99.996094 172.332031 100.03125 172.269531 100.390625 L 171.898438 100.496094 C 171.726563 100.667969 171.464844 100.703125 171.3125 100.894531 C 170.738281 101.066406 171.222656 101.449219 169.933594 101.402344 C 168.921875 101.5 168.09375 101.527344 167.320313 101.5625 C 167.160156 101.308594 166.730469 101.476563 166.644531 101.136719 C 166.257813 100.972656 165.808594 100.898438 165.523438 100.558594 L 165.1875 100.496094 C 165.019531 100.316406 164.011719 99.300781 164.007813 99.226563 C 163.992188 99.050781 164.140625 98.910156 163.921875 98.769531 C 163.535156 98.53125 163.660156 98.058594 163.332031 97.808594 C 163.34375 97.566406 163.246094 96.871094 163.019531 96.722656 L 162.902344 96.214844 C 162.902344 96.214844 162.625 96.027344 162.84375 95.894531 C 162.761719 95.644531 162.507813 94.1875 162.625 93.96875 L 162.558594 93.476563 C 162.238281 93.351563 161.125 94.246094 160.925781 94.515625 C 160 94.785156 160.183594 94.84375 159.679688 95.53125 C 159.582031 95.550781 158.558594 96.398438 158.558594 96.398438 C 158.171875 96.695313 156.167969 98.398438 155.933594 98.390625 C 155.609375 98.585938 154.96875 99.320313 154.640625 99.238281 C 154.382813 99.542969 153.90625 99.570313 153.546875 99.753906 C 153.0625 99.667969 152.820313 100.167969 152.457031 100.136719 C 152.308594 100.730469 150.289063 99.902344 149.992188 99.5625 C 149.945313 99.304688 149.671875 99.132813 149.746094 98.847656 C 148.925781 98.273438 149.773438 95.976563 149.671875 95.632813 Z M 157.792969 89.882813 C 158.328125 89.902344 158.882813 88.71875 159.277344 88.773438 C 159.46875 88.6875 160.347656 88.0625 160.5 87.894531 C 160.652344 87.726563 160.914063 87.765625 161.066406 87.59375 C 161.386719 87.683594 161.5625 87.394531 161.847656 87.335938 L 162.078125 87.058594 L 162.632813 87.078125 C 163.148438 86.625 163.433594 86.414063 163.429688 87.324219 C 163.429688 87.324219 162.589844 88.46875 162.558594 88.636719 C 162.332031 88.734375 161.691406 89.3125 161.613281 89.292969 C 161.109375 89.902344 160.136719 89.867188 159.660156 90.753906 C 158.664063 91.242188 157.996094 92.207031 157.054688 92.730469 C 157.019531 92.980469 156.003906 93.753906 155.800781 94 C 155.734375 93.996094 154.75 94.617188 154.683594 94.714844 L 154.246094 94.703125 C 154.273438 94.117188 157.261719 90.433594 157.792969 89.882813 Z M 86.902344 106.097656 C 86.949219 105.765625 87.175781 105.464844 87.140625 105.117188 C 87.234375 105.015625 87.695313 103.621094 87.859375 103.292969 C 87.957031 103.105469 88.171875 102.960938 88.164063 102.730469 C 88.355469 102.464844 88.703125 102.285156 88.730469 101.925781 C 88.976563 101.640625 89.921875 99.558594 90.144531 99.507813 C 90.683594 98.996094 92.363281 94.242188 92.414063 94.207031 C 92.59375 93.472656 93.859375 87.910156 93.964844 87.804688 C 94.148438 86.933594 94.304688 86.039063 94.378906 85.148438 C 94.699219 84.867188 94.9375 82.394531 94.398438 82.171875 C 94.125 81.824219 92.292969 83.210938 91.921875 83.246094 C 91.777344 83.433594 90.839844 83.847656 90.605469 83.855469 C 89.972656 84.277344 88.636719 83.675781 88.453125 82.90625 C 88.273438 82.761719 88.347656 82.484375 88.1875 82.324219 C 88.222656 82.082031 88.273438 81.824219 88.363281 81.59375 C 88.660156 81.425781 88.476563 81.0625 88.675781 80.847656 C 88.957031 80.546875 90.039063 79.304688 90.1875 79.015625 C 90.75 78.679688 91.492188 77.667969 92 77.164063 C 92.464844 77.09375 92.558594 76.738281 92.914063 76.507813 C 93.164063 76.589844 94.070313 75.8125 94.15625 75.574219 L 94.53125 75.472656 C 94.660156 75.261719 95.058594 75.421875 95.082031 75.121094 C 95.421875 74.773438 96.542969 74.304688 96.628906 74.066406 C 97.109375 74.058594 98.234375 73.3125 98.730469 73.078125 C 98.890625 73.117188 100.726563 72.664063 100.835938 72.582031 C 101.695313 72.726563 103.066406 72.117188 103.980469 72.457031 C 104.195313 72.398438 104.441406 72.59375 104.636719 72.445313 C 106.027344 73.023438 108.027344 72.796875 109.371094 73.636719 C 109.878906 73.953125 110.902344 74.492188 111.277344 74.878906 C 111.382813 74.984375 111.839844 75.621094 111.925781 75.640625 C 111.921875 75.652344 112.839844 77.054688 112.945313 77.15625 C 113.476563 78.777344 112.753906 79.574219 112.945313 81.039063 L 112.769531 81.320313 C 112.78125 81.519531 112.433594 82.546875 112.367188 82.714844 C 112.144531 82.824219 111.800781 83.632813 111.570313 83.847656 C 111.511719 84.085938 111.292969 84.21875 111.214844 84.441406 C 110.9375 84.636719 108.859375 86.515625 108.746094 86.742188 C 107.957031 87.132813 107.417969 88.402344 106.574219 88.800781 C 106.53125 88.9375 106.519531 89.152344 106.65625 89.242188 L 106.996094 89.65625 C 107.066406 89.648438 108.261719 90.65625 108.386719 90.746094 C 108.453125 90.738281 109.859375 92.132813 110.28125 92.359375 C 110.273438 92.570313 110.535156 92.621094 110.636719 92.773438 L 111.648438 94.105469 C 111.714844 94.285156 111.804688 94.488281 111.949219 94.621094 C 111.996094 94.863281 112.121094 95.082031 112.230469 95.300781 C 112.121094 95.867188 112.398438 96.484375 112.386719 97.074219 C 112.351563 98.675781 111.972656 99.96875 111.425781 101.425781 C 111.308594 101.742188 111.421875 102.003906 111.03125 102.203125 C 110.808594 102.40625 110.660156 102.535156 110.675781 102.695313 C 110.488281 103.003906 109.011719 104.308594 108.738281 104.339844 C 108.527344 104.675781 108.121094 104.84375 107.964844 105.222656 C 106.199219 106.035156 104.355469 107.152344 102.605469 108.078125 C 100.460938 109.210938 91.203125 109.671875 89.140625 108.546875 C 88.882813 108.40625 88.433594 108.472656 88.277344 108.214844 C 86.25 107.796875 87.136719 107.539063 86.699219 106.714844 C 86.824219 106.523438 86.671875 106.238281 86.902344 106.097656 Z M 77.234375 86.40625 C 77.46875 86.273438 77.527344 85.96875 77.773438 85.839844 C 78.425781 85.496094 79.046875 85.566406 79.625 85.347656 C 79.953125 85.492188 80.460938 85.808594 80.816406 85.894531 C 81.164063 86.441406 81.316406 86.359375 81.796875 86.667969 C 81.832031 87.019531 82.339844 87.3125 82.113281 87.652344 C 82.191406 87.890625 82.097656 88.140625 81.941406 88.320313 C 81.679688 88.398438 81.507813 88.773438 81.378906 88.988281 C 81.175781 88.996094 80.953125 88.949219 80.804688 89.121094 C 80.214844 89.023438 77.902344 89.039063 77.632813 88.941406 C 77.410156 88.863281 77.335938 88.53125 77.042969 88.484375 C 76.492188 87.683594 76.851563 87.699219 76.878906 86.914063 C 76.878906 86.914063 77.195313 86.769531 77.234375 86.40625 Z M 68.582031 110.277344 C 68.691406 109.839844 68.78125 109.476563 68.960938 109.0625 C 68.960938 109.0625 69.863281 105.972656 70.085938 105.722656 C 70.042969 105.582031 70.199219 105.582031 70.113281 105.421875 C 70.359375 104.78125 70.238281 104.1875 70.726563 103.695313 C 70.726563 103.695313 71.039063 102.707031 71.15625 102.484375 L 71.550781 101.335938 C 71.625 100.992188 72.109375 98.957031 72.328125 98.777344 C 72.328125 98.777344 72.96875 96.242188 73.335938 95.917969 C 73.4375 95.511719 73.652344 94.628906 73.945313 94.394531 C 74.003906 93.660156 73.824219 93.425781 74.707031 93.226563 C 74.78125 92.960938 75.0625 92.941406 75.277344 92.84375 C 75.515625 92.867188 75.792969 92.867188 75.972656 92.683594 C 76.277344 92.597656 76.5 92.867188 76.789063 92.898438 C 76.925781 93.117188 77.226563 93.007813 77.4375 93.070313 C 77.507813 93.230469 77.632813 93.433594 77.808594 93.488281 C 77.90625 93.730469 78.207031 93.894531 78.359375 94.128906 C 78.503906 94.351563 78.550781 94.765625 78.636719 94.878906 L 78.574219 95.617188 C 78.71875 96.117188 77.964844 96.433594 78.226563 96.929688 C 78.179688 97.21875 77.6875 98.785156 77.488281 98.820313 L 77.199219 99.433594 C 77.308594 100.378906 76.425781 101.234375 76.4375 101.976563 C 76.195313 102.246094 76.410156 102.664063 76.148438 103.0625 C 75.894531 103.441406 75.726563 104.027344 75.628906 104.457031 C 75.582031 104.734375 74.59375 107.40625 74.375 107.640625 C 74.34375 107.84375 73.417969 110.820313 73.300781 110.910156 C 73.269531 111.285156 72.910156 111.539063 72.914063 111.921875 C 72.5 112.574219 72.175781 112.230469 71.84375 112.609375 C 71.332031 112.640625 69.839844 112.5625 69.457031 112.238281 C 69.15625 112.308594 68.964844 111.992188 68.671875 112.011719 L 68.605469 111.523438 C 68.324219 111.074219 68.734375 110.621094 68.582031 110.277344 Z M 59.078125 110.449219 C 59.429688 109.71875 59.613281 109.203125 59.792969 108.710938 C 59.878906 108.683594 60.636719 106.699219 60.644531 106.46875 C 60.894531 106.265625 62.523438 101.839844 62.765625 101.164063 C 63.210938 100.84375 63.9375 98.511719 64.003906 97.898438 C 64.382813 97.714844 65.101563 95.28125 65.171875 94.792969 C 65.34375 94.613281 65.886719 92.460938 66.117188 92.304688 C 66.464844 91.074219 67.957031 87.734375 67.992188 86.757813 C 68.265625 85.898438 68.820313 84.695313 69.269531 83.910156 C 69.167969 83.554688 69.621094 83.398438 69.617188 83.066406 C 70.089844 82.585938 70.328125 81.003906 70.71875 80.382813 C 70.714844 80.289063 71.652344 77.4375 71.699219 77.339844 C 71.855469 77.320313 72.050781 76.921875 72.105469 76.800781 C 72.085938 76.671875 72.089844 76.410156 72.269531 76.402344 C 72.332031 76.019531 72.804688 76.023438 73.09375 75.925781 C 73.800781 75.9375 75.90625 75.996094 76.183594 76.539063 C 76.277344 76.726563 76.359375 76.929688 76.480469 77.101563 C 76.3125 77.386719 76.65625 77.15625 76.621094 77.460938 C 76.605469 77.59375 76.375 78.507813 76.316406 78.542969 C 75.890625 79.917969 75.070313 81.242188 74.742188 82.605469 C 74.703125 82.773438 74.253906 83.871094 74.089844 83.945313 C 73.894531 84.308594 73.796875 84.882813 73.640625 85.289063 C 73.40625 85.4375 72.660156 88.070313 72.464844 88.207031 C 72.039063 89.226563 71.507813 90.660156 71.398438 91.769531 C 70.777344 92.269531 68.910156 100.558594 67.726563 101.070313 L 67.523438 101.582031 C 67.433594 101.785156 67.359375 101.988281 67.285156 102.179688 C 67.289063 102.183594 67.085938 103.332031 67.039063 103.464844 C 66.683594 103.910156 66.574219 104.285156 66.578125 104.660156 C 66.214844 105.78125 65.886719 106.929688 65.601563 108.003906 C 65.4375 108.253906 65.269531 108.421875 65.308594 108.648438 C 64.867188 109.671875 64.164063 111.203125 63.921875 112.265625 C 63.726563 113.128906 63.542969 114.214844 63.222656 115.015625 C 63.03125 114.976563 63.046875 115.257813 62.84375 115.21875 C 62.632813 115.179688 62.449219 115.214844 62.238281 115.25 C 61.644531 115.351563 61.105469 115.191406 60.539063 115.289063 C 60.230469 115.167969 59.734375 114.703125 59.285156 115.078125 L 58.871094 114.929688 C 58.902344 114.546875 58.457031 114.332031 58.449219 113.957031 C 57.820313 113.3125 59.234375 111.035156 59.078125 110.449219 Z M 49.59375 112.4375 C 49.65625 112.09375 49.769531 111.765625 49.816406 111.421875 C 50.140625 111.171875 50.253906 109.253906 50.289063 108.882813 C 50.539063 108.800781 50.734375 107.773438 50.722656 107.585938 C 50.953125 106.929688 51.761719 104.503906 52.105469 104.035156 C 52.230469 103.871094 52.1875 103.230469 52.242188 103 C 52.320313 102.675781 52.660156 102.558594 52.660156 102.171875 C 52.65625 101.878906 54.1875 98.039063 54.382813 97.125 C 54.824219 96.234375 55.105469 95.644531 55.363281 94.972656 C 55.273438 94.628906 57.488281 89.609375 57.363281 89.242188 C 58.402344 86.273438 59.011719 83.355469 60.59375 80.550781 C 61.792969 78.414063 64.507813 78.261719 64.550781 79.324219 C 64.707031 79.585938 65.046875 79.863281 64.976563 80.199219 C 64.902344 80.445313 65.015625 80.71875 64.882813 80.933594 C 64.769531 81.375 63.605469 85.253906 63.597656 85.527344 L 63.535156 85.84375 C 63.289063 86.101563 62.53125 87.808594 62.632813 88.132813 C 62.179688 88.78125 61.757813 91.296875 61.320313 91.515625 C 61.222656 91.789063 61.183594 92.082031 61.171875 92.367188 C 60.867188 92.972656 60.113281 95.4375 60.117188 95.609375 C 60.007813 95.765625 59.898438 95.980469 59.929688 96.175781 C 59.601563 96.75 59.386719 97.398438 59.109375 97.996094 C 59.128906 98.183594 59.117188 98.511719 58.902344 98.59375 C 57.972656 99.941406 55 109.933594 54.519531 111.972656 C 54.308594 112.867188 54.503906 113.90625 54.253906 114.753906 C 54.027344 114.875 54.0625 115.207031 53.796875 115.289063 L 53.601563 115.570313 C 52.785156 115.792969 50.351563 115.933594 49.6875 115.5 C 49.648438 115.253906 49.273438 115.363281 49.25 115.082031 C 49.214844 114.632813 49.335938 112.753906 49.59375 112.4375 Z M 47.203125 89.410156 C 47.289063 88.8125 48.039063 89.054688 48.304688 88.640625 C 48.5625 88.632813 48.683594 88.371094 48.972656 88.347656 C 50.21875 88.238281 50.140625 88.8125 50.847656 89.050781 C 50.953125 89.1875 51.289063 89.460938 51.433594 89.574219 C 51.691406 90.097656 51.992188 90.652344 51.980469 91.222656 C 51.746094 91.714844 51.175781 91.992188 50.765625 92.34375 L 50.480469 92.332031 C 50.316406 92.65625 49.957031 92.3125 49.71875 92.488281 C 49.402344 92.261719 49.082031 92.683594 48.738281 92.589844 C 48.464844 92.515625 48.421875 92.890625 48.160156 92.855469 C 47.917969 92.824219 47.730469 92.59375 47.476563 92.628906 C 46.308594 91.328125 45.753906 90.769531 47.203125 89.410156 Z M 37.042969 116.035156 C 37.199219 115.910156 37.339844 115.222656 37.398438 115.039063 C 37.640625 114.269531 38.449219 113.285156 38.476563 112.554688 C 38.714844 112.320313 38.921875 111.617188 39.050781 111.566406 C 39.421875 110.832031 42.277344 103.074219 42.363281 102.402344 C 42.386719 102.199219 42.402344 101.832031 42.621094 101.738281 C 43.15625 99.808594 43.636719 98.089844 44.34375 96.183594 C 44.503906 96.0625 44.449219 95.765625 44.710938 95.777344 C 44.929688 95.574219 45.167969 95.386719 45.484375 95.367188 C 45.605469 95.167969 46.152344 95.15625 46.382813 95.097656 C 46.632813 95.273438 47.09375 95.09375 47.210938 95.460938 C 47.347656 95.5625 47.847656 95.6875 47.890625 95.738281 C 48.617188 96.589844 48.648438 97.179688 48.929688 98.195313 C 48.765625 98.503906 47.882813 101.300781 47.851563 101.617188 C 47.425781 101.992188 46.847656 105.234375 46.324219 105.449219 C 46.238281 105.605469 43.929688 111.925781 43.929688 111.9375 C 43.707031 112.164063 44.03125 112.601563 43.617188 112.699219 C 43.554688 113.039063 43.328125 113.324219 43.332031 113.679688 C 42.703125 114.507813 42.738281 115.539063 42.410156 116.421875 C 42.007813 116.636719 42.199219 117.144531 41.847656 117.09375 C 41.773438 117.285156 41.359375 118.035156 41.339844 118.199219 C 41.066406 118.136719 40.617188 118.324219 40.421875 118.503906 C 40.265625 118.4375 39.894531 118.320313 39.816406 118.550781 C 39.335938 118.609375 38.578125 118.503906 38.164063 118.660156 C 37.554688 118.496094 37.320313 118.730469 36.800781 118.226563 C 36.660156 117.359375 36.886719 116.839844 37.042969 116.035156 Z M 23.121094 102.640625 C 22.734375 102.414063 22.894531 101.929688 22.90625 101.570313 C 23.03125 101.402344 23.058594 101.121094 23.324219 101.132813 C 23.992188 99.640625 24.878906 98.851563 24.996094 97.054688 C 25.296875 96.726563 26.199219 92.796875 26.363281 92.09375 C 26.457031 91.707031 27.03125 90.335938 26.703125 90.15625 C 26.664063 89.851563 26.246094 89.898438 26.148438 89.632813 L 25.832031 89.554688 C 25.457031 89.066406 25.007813 88.453125 25.6875 87.886719 C 25.695313 87.613281 26.101563 87.648438 26.125 87.378906 C 26.285156 87.078125 26.773438 86.730469 27.125 86.726563 C 27.167969 86.625 28.160156 85.898438 28.367188 85.8125 C 28.398438 85.347656 29.359375 85.777344 29.777344 85.320313 C 30.558594 85.183594 31.066406 84.570313 31.972656 84.625 C 32.207031 84.457031 32.554688 84.261719 32.855469 84.386719 C 33.597656 83.984375 34.59375 84.050781 35.386719 83.652344 C 35.5625 83.769531 35.71875 83.605469 35.875 83.550781 C 36.9375 83.175781 38.445313 83.136719 39.402344 82.664063 C 39.476563 82.679688 40.726563 82.476563 40.839844 82.449219 C 41.324219 82.429688 41.726563 82.160156 42.195313 82.210938 C 42.667969 81.792969 46.058594 81.746094 46.550781 82.125 C 47.171875 81.917969 47.929688 83.09375 48.183594 83.511719 C 48.195313 84.550781 46.574219 84.824219 45.984375 85.28125 C 45.820313 85.222656 45.589844 85.179688 45.429688 85.28125 C 44.867188 85.316406 41.976563 85.644531 41.921875 85.628906 C 41.660156 85.714844 41.300781 85.65625 41.089844 85.867188 C 40.839844 85.828125 40.597656 85.933594 40.347656 85.910156 L 39.96875 86.164063 C 39.71875 86.105469 39.484375 86.246094 39.242188 86.289063 C 39.148438 86.398438 37.304688 86.761719 37.226563 86.710938 C 36.453125 87.097656 33.796875 87.472656 33.527344 87.703125 C 33.28125 87.730469 33.0625 87.84375 32.863281 87.984375 C 32.035156 88.035156 32.226563 88.914063 31.84375 89.277344 C 31.605469 90.160156 31.007813 93.335938 30.621094 93.875 C 30.53125 94.835938 29.992188 95.574219 30.09375 96.578125 C 29.699219 96.847656 29.863281 97.335938 29.664063 97.722656 C 29.710938 98.476563 29.472656 98.273438 29.816406 99.140625 L 30.105469 99.050781 C 30.136719 99.015625 32.160156 98.445313 32.261719 98.46875 C 32.710938 98.304688 34.597656 97.894531 34.691406 97.730469 C 36.121094 97.699219 36.375 96.761719 38.230469 97.5 L 38.519531 97.882813 C 40.398438 100.167969 33.121094 101.703125 31.964844 102.171875 C 31.492188 102.285156 30.441406 102.644531 30.140625 102.867188 C 29.832031 102.785156 29.066406 103.101563 28.800781 103.207031 C 27.457031 103.957031 27.269531 104.921875 27.0625 106.304688 C 26.640625 106.707031 26.210938 108.597656 26.054688 108.640625 C 25.71875 110.410156 24.582031 111.945313 24.496094 113.78125 C 24.261719 113.90625 24.03125 115.160156 24.054688 115.34375 C 23.832031 116.140625 22.953125 119.53125 22.671875 119.851563 C 22.652344 119.847656 21.507813 120.414063 21.492188 120.464844 L 21.15625 120.453125 C 20.96875 120.59375 20.148438 120.523438 19.910156 120.511719 C 19.78125 120.503906 18.820313 120.355469 18.773438 120.269531 C 18.351563 119.492188 18.464844 117.589844 18.695313 116.738281 C 18.863281 116.117188 20.433594 110.601563 20.578125 110.5 C 20.835938 110.316406 20.800781 110.167969 20.851563 109.886719 C 21.105469 108.507813 22.460938 106.3125 22.699219 105.128906 C 22.878906 104.242188 23.316406 103.605469 23.121094 102.640625 "/>
</g>
</svg>
